<mxfile host="app.diagrams.net" modified="2024-05-13T16:13:17.962Z" agent="Mozilla/5.0 (Windows NT 10.0; Win64; x64; rv:125.0) Gecko/20100101 Firefox/125.0" version="24.4.0" etag="Cf43gHR_DOHHL3Z1TLcs" type="github">
  <diagram name="Page-1" id="ht5UlmDzYOv5slASDZWB">
    <mxGraphModel>
      <root>
        <mxCell id="0" />
        <mxCell id="1" parent="0" />
      </root>
    </mxGraphModel>
  </diagram>
</mxfile>
